<svg xmlns="http://www.w3.org/2000/svg" viewBox="0 0 900 550" width="100%" height="100%">
  <defs>
    <linearGradient id="ebigaBg" x1="0%" y1="0%" x2="100%" y2="100%">
      <stop offset="0%" stop-color="#f8fafc" />
      <stop offset="100%" stop-color="#f1f5f9" />
    </linearGradient>
  </defs>

  <!-- Container -->
  <rect width="900" height="550" rx="16" fill="url(#ebigaBg)" />
  <rect width="900" height="550" rx="16" fill="none" stroke="#cbd5e1" stroke-width="1.5" />

  <!-- App Window Bar -->
  <rect width="900" height="44" fill="#ffffff" />
  <line x1="0" y1="44" x2="900" y2="44" stroke="#e2e8f0" stroke-width="1" />
  <circle cx="26" cy="22" r="5" fill="#ef4444" />
  <circle cx="44" cy="22" r="5" fill="#f59e0b" />
  <circle cx="62" cy="22" r="5" fill="#10b981" />
  <text x="90" y="27" fill="#475569" font-family="monospace" font-size="12" font-weight="600">ebigatanza.com / barangay-biga / management-information-system</text>
  
  <rect x="740" y="12" width="136" height="20" rx="4" fill="#ecfdf5" stroke="#10b981" stroke-width="1" />
  <text x="808" y="26" fill="#059669" font-family="monospace" font-size="10" font-weight="bold" text-anchor="middle">LIVE PRODUCTION</text>

  <!-- Top Banner / Barangay Header -->
  <rect x="24" y="60" width="852" height="74" rx="10" fill="#ffffff" stroke="#e2e8f0" stroke-width="1" />
  
  <circle cx="60" cy="97" r="22" fill="#0284c7" fill-opacity="0.15" stroke="#0284c7" stroke-width="1.5" />
  <text x="60" y="103" fill="#0284c7" font-family="sans-serif" font-size="14" font-weight="bold" text-anchor="middle">🏛️</text>

  <text x="96" y="86" fill="#0f172a" font-family="sans-serif" font-size="16" font-weight="bold">Barangay Biga Management Information System (e-Biga MIS)</text>
  <text x="96" y="106" fill="#64748b" font-family="sans-serif" font-size="12">Municipality of Tanza, Province of Cavite • Official Administrative Portal</text>

  <!-- Metric Pills Top Right -->
  <rect x="670" y="72" width="190" height="50" rx="8" fill="#f8fafc" stroke="#cbd5e1" stroke-width="1" />
  <text x="765" y="92" fill="#64748b" font-family="monospace" font-size="10" text-anchor="middle">REGISTERED RESIDENTS</text>
  <text x="765" y="112" fill="#0f172a" font-family="sans-serif" font-size="16" font-weight="bold" text-anchor="middle">8,420 Active Records</text>

  <!-- Left: Resident Services & Certificate Requests -->
  <rect x="24" y="150" width="540" height="376" rx="10" fill="#ffffff" stroke="#e2e8f0" stroke-width="1" />
  <text x="44" y="180" fill="#0f172a" font-family="monospace" font-size="11" font-weight="bold">RECENT CERTIFICATE ISSUANCE &amp; DOCUMENT QUEUE</text>

  <!-- Table Header -->
  <rect x="44" y="196" width="500" height="32" rx="4" fill="#f1f5f9" />
  <text x="56" y="216" fill="#475569" font-family="monospace" font-size="10" font-weight="bold">REF NO</text>
  <text x="140" y="216" fill="#475569" font-family="monospace" font-size="10" font-weight="bold">RESIDENT NAME</text>
  <text x="310" y="216" fill="#475569" font-family="monospace" font-size="10" font-weight="bold">DOCUMENT TYPE</text>
  <text x="450" y="216" fill="#475569" font-family="monospace" font-size="10" font-weight="bold">STATUS</text>

  <!-- Row 1 -->
  <line x1="44" y1="272" x2="544" y2="272" stroke="#f1f5f9" stroke-width="1" />
  <text x="56" y="254" fill="#0284c7" font-family="monospace" font-size="11">CLR-2026-081</text>
  <text x="140" y="248" fill="#0f172a" font-family="sans-serif" font-size="12" font-weight="600">Juan Dela Cruz</text>
  <text x="140" y="264" fill="#64748b" font-family="sans-serif" font-size="10">Purok 3 • Resident ID: #8491</text>
  <text x="310" y="254" fill="#334155" font-family="sans-serif" font-size="11">Barangay Clearance</text>
  <rect x="450" y="240" width="76" height="22" rx="4" fill="#dcfce7" />
  <text x="488" y="255" fill="#15803d" font-family="sans-serif" font-size="10" font-weight="bold" text-anchor="middle">Issued &amp; Printed</text>

  <!-- Row 2 -->
  <line x1="44" y1="324" x2="544" y2="324" stroke="#f1f5f9" stroke-width="1" />
  <text x="56" y="306" fill="#0284c7" font-family="monospace" font-size="11">IND-2026-082</text>
  <text x="140" y="300" fill="#0f172a" font-family="sans-serif" font-size="12" font-weight="600">Maria Santos</text>
  <text x="140" y="316" fill="#64748b" font-family="sans-serif" font-size="10">Purok 1 • Senior Citizen</text>
  <text x="310" y="306" fill="#334155" font-family="sans-serif" font-size="11">Cert. of Indigency</text>
  <rect x="450" y="292" width="76" height="22" rx="4" fill="#dcfce7" />
  <text x="488" y="307" fill="#15803d" font-family="sans-serif" font-size="10" font-weight="bold" text-anchor="middle">Issued &amp; Printed</text>

  <!-- Row 3 -->
  <line x1="44" y1="376" x2="544" y2="376" stroke="#f1f5f9" stroke-width="1" />
  <text x="56" y="358" fill="#0284c7" font-family="monospace" font-size="11">RES-2026-083</text>
  <text x="140" y="352" fill="#0f172a" font-family="sans-serif" font-size="12" font-weight="600">Reynaldo Bautista</text>
  <text x="140" y="368" fill="#64748b" font-family="sans-serif" font-size="10">Purok 4 • New Resident</text>
  <text x="310" y="358" fill="#334155" font-family="sans-serif" font-size="11">Cert. of Residency</text>
  <rect x="450" y="344" width="76" height="22" rx="4" fill="#fef3c7" />
  <text x="488" y="359" fill="#b45309" font-family="sans-serif" font-size="10" font-weight="bold" text-anchor="middle">Processing</text>

  <!-- Row 4 -->
  <line x1="44" y1="428" x2="544" y2="428" stroke="#f1f5f9" stroke-width="1" />
  <text x="56" y="410" fill="#0284c7" font-family="monospace" font-size="11">BLT-2026-042</text>
  <text x="140" y="404" fill="#0f172a" font-family="sans-serif" font-size="12" font-weight="600">Incident Blotter #042</text>
  <text x="140" y="420" fill="#64748b" font-family="sans-serif" font-size="10">Purok 2 • Community Concern</text>
  <text x="310" y="410" fill="#334155" font-family="sans-serif" font-size="11">Mediation Hearing</text>
  <rect x="450" y="396" width="76" height="22" rx="4" fill="#e0e7ff" />
  <text x="488" y="411" fill="#4338ca" font-family="sans-serif" font-size="10" font-weight="bold" text-anchor="middle">Scheduled</text>

  <!-- Bottom Quick Stats in Table -->
  <rect x="44" y="448" width="500" height="56" rx="8" fill="#f8fafc" stroke="#e2e8f0" stroke-width="1" />
  <text x="60" y="472" fill="#059669" font-family="sans-serif" font-size="11" font-weight="bold">✓ Real-World Impact in Barangay Biga:</text>
  <text x="60" y="490" fill="#475569" font-family="sans-serif" font-size="10">Eliminated physical paper loss, automated document stamps, and sped up resident clearance turnaround.</text>

  <!-- Right: Demographics & Quick Actions -->
  <rect x="580" y="150" width="296" height="376" rx="10" fill="#ffffff" stroke="#e2e8f0" stroke-width="1" />
  <text x="600" y="180" fill="#0f172a" font-family="monospace" font-size="11" font-weight="bold">PUROK POPULATION DISTRIBUTION</text>

  <!-- Mini Chart Bars -->
  <rect x="600" y="200" width="36" height="110" rx="4" fill="#0284c7" />
  <text x="618" y="325" fill="#64748b" font-family="monospace" font-size="9" text-anchor="middle">P1</text>

  <rect x="650" y="170" width="36" height="140" rx="4" fill="#10b981" />
  <text x="668" y="325" fill="#64748b" font-family="monospace" font-size="9" text-anchor="middle">P2</text>

  <rect x="700" y="220" width="36" height="90" rx="4" fill="#6366f1" />
  <text x="718" y="325" fill="#64748b" font-family="monospace" font-size="9" text-anchor="middle">P3</text>

  <rect x="750" y="190" width="36" height="120" rx="4" fill="#f59e0b" />
  <text x="768" y="325" fill="#64748b" font-family="monospace" font-size="9" text-anchor="middle">P4</text>

  <rect x="800" y="240" width="36" height="70" rx="4" fill="#ec4899" />
  <text x="818" y="325" fill="#64748b" font-family="monospace" font-size="9" text-anchor="middle">P5</text>

  <!-- System Features Box -->
  <rect x="600" y="348" width="256" height="156" rx="8" fill="#f8fafc" stroke="#e2e8f0" stroke-width="1" />
  <text x="616" y="372" fill="#0f172a" font-family="monospace" font-size="10" font-weight="bold">ADMINISTRATIVE MODULES</text>
  
  <text x="616" y="396" fill="#334155" font-family="sans-serif" font-size="11">📄 Clearance Generator: <tspan fill="#059669" font-weight="bold">Instant</tspan></text>
  <text x="616" y="420" fill="#334155" font-family="sans-serif" font-size="11">👥 Resident Profiling: <tspan fill="#059669" font-weight="bold">Household 3NF</tspan></text>
  <text x="616" y="444" fill="#334155" font-family="sans-serif" font-size="11">⚖️ Blotter Tracking: <tspan fill="#059669" font-weight="bold">Confidential</tspan></text>
  <text x="616" y="468" fill="#334155" font-family="sans-serif" font-size="11">🌐 Production Domain: <tspan fill="#0284c7" font-weight="bold">ebigatanza.com</tspan></text>
</svg>
